<?xml version="1.0" encoding="UTF-8"?>
<svg width="48" height="48" fill="currentColor" fill-rule="evenodd" stroke-linejoin="round"
    stroke-miterlimit="1.414" aria-label="bolt-docs" cliprule="evenodd" version="1.1"
    viewBox="0 0 32 32" xmlns="http://www.w3.org/2000/svg">
    <path
        d="m16 5.5a5 5 0 0 0-5 5v1h-4c-1.105 0-2 0.8937-2 1.9987v5.0013c0 6.041 0.79201 7.7646 9 7.9766 0.623 0.017 1.289 0.023438 2 0.023438 10.083 0 11-1.5 11-8v-5.0013c-5.52e-4 -1.1042-0.89582-1.9987-2-1.9987h-4v-1a5 5 0 0 0-5-5zm-0.22396 2.0078a3 3 0 0 1 3.224 2.9922v1h-6v-1a3 3 0 0 1 2.776-2.9922z"
        fill="#FF8C37" />
</svg>