<svg width="36" height="36" viewBox="0 0 36 36" fill="none" xmlns="http://www.w3.org/2000/svg">
<mask id="mask0_89_68" style="mask-type:alpha" maskUnits="userSpaceOnUse" x="0" y="0" width="36" height="36">
<rect width="36" height="36" fill="#D9D9D9"/>
</mask>
<g mask="url(#mask0_89_68)">
<path d="M7.3875 28.6126C6.0375 27.2376 4.96875 25.6438 4.18125 23.8313C3.39375 22.0188 3 20.0751 3 18.0001C3 15.9001 3.39375 13.9438 4.18125 12.1313C4.96875 10.3188 6.0375 8.73757 7.3875 7.38757L9.525 9.52507C8.425 10.6251 7.5625 11.9001 6.9375 13.3501C6.3125 14.8001 6 16.3501 6 18.0001C6 19.6751 6.3125 21.2376 6.9375 22.6876C7.5625 24.1376 8.425 25.4001 9.525 26.4751L7.3875 28.6126ZM11.625 24.3751C10.825 23.5501 10.1875 22.5938 9.7125 21.5063C9.2375 20.4188 9 19.2501 9 18.0001C9 16.7251 9.2375 15.5438 9.7125 14.4563C10.1875 13.3688 10.825 12.4251 11.625 11.6251L13.7625 13.7626C13.2125 14.3126 12.7812 14.9501 12.4687 15.6751C12.1562 16.4001 12 17.1751 12 18.0001C12 18.8251 12.1562 19.6001 12.4687 20.3251C12.7812 21.0501 13.2125 21.6876 13.7625 22.2376L11.625 24.3751ZM18 21.0001C17.175 21.0001 16.4687 20.7063 15.8812 20.1188C15.2937 19.5313 15 18.8251 15 18.0001C15 17.1751 15.2937 16.4688 15.8812 15.8813C16.4687 15.2938 17.175 15.0001 18 15.0001C18.825 15.0001 19.5312 15.2938 20.1187 15.8813C20.7062 16.4688 21 17.1751 21 18.0001C21 18.8251 20.7062 19.5313 20.1187 20.1188C19.5312 20.7063 18.825 21.0001 18 21.0001ZM24.375 24.3751L22.2375 22.2376C22.7875 21.6876 23.2187 21.0501 23.5312 20.3251C23.8437 19.6001 24 18.8251 24 18.0001C24 17.1751 23.8437 16.4001 23.5312 15.6751C23.2187 14.9501 22.7875 14.3126 22.2375 13.7626L24.375 11.6251C25.175 12.4251 25.8125 13.3688 26.2875 14.4563C26.7625 15.5438 27 16.7251 27 18.0001C27 19.2501 26.7625 20.4188 26.2875 21.5063C25.8125 22.5938 25.175 23.5501 24.375 24.3751ZM28.6125 28.6126L26.475 26.4751C27.575 25.3751 28.4375 24.1001 29.0625 22.6501C29.6875 21.2001 30 19.6501 30 18.0001C30 16.3251 29.6875 14.7626 29.0625 13.3126C28.4375 11.8626 27.575 10.6001 26.475 9.52507L28.6125 7.38757C29.9625 8.73757 31.0312 10.3188 31.8187 12.1313C32.6062 13.9438 33 15.9001 33 18.0001C33 20.0751 32.6062 22.0188 31.8187 23.8313C31.0312 25.6438 29.9625 27.2376 28.6125 28.6126Z" fill="#1CCD38"/>
</g>
</svg>
